HIERARCHY
ROOT root
{
	OFFSET 0.000000 0.000000 0.000000
	CHANNELS 6 Xposition Yposition Zposition Zrotation Yrotation Xrotation
	JOINT lhip
	{
		OFFSET 0.058581 -0.082280 -0.017664
		CHANNELS 3 Zrotation Yrotation Xrotation
		JOINT lknee
		{
			OFFSET 0.043451 -0.386469 0.008037
			CHANNELS 3 Zrotation Yrotation Xrotation
			JOINT lankle
			{
				OFFSET -0.014790 -0.426874 -0.037428
				CHANNELS 3 Zrotation Yrotation Xrotation
				JOINT ltoe
				{
					OFFSET 0.041054 -0.060286 0.122042
					CHANNELS 3 Zrotation Yrotation Xrotation
					End Site
					{
						OFFSET 0.000000 0.000000 0.000000
					}
				}
			}
		}
	}
	JOINT rhip
	{
		OFFSET -0.060310 -0.090513 -0.013543
		CHANNELS 3 Zrotation Yrotation Xrotation
		JOINT rknee
		{
			OFFSET -0.043257 -0.383688 -0.004843
			CHANNELS 3 Zrotation Yrotation Xrotation
			JOINT rankle
			{
				OFFSET 0.019056 -0.420046 -0.034562
				CHANNELS 3 Zrotation Yrotation Xrotation
				JOINT rtoe
				{
					OFFSET -0.034840 -0.062106 0.130323
					CHANNELS 3 Zrotation Yrotation Xrotation
					End Site
					{
						OFFSET 0.000000 0.000000 0.000000
					}
				}
			}
		}
	}
	JOINT lowerback
	{
		OFFSET 0.004439 0.124404 -0.038385
		CHANNELS 3 Zrotation Yrotation Xrotation
		JOINT upperback
		{
			OFFSET 0.004488 0.137956 0.026820
			CHANNELS 3 Zrotation Yrotation Xrotation
			JOINT chest
			{
				OFFSET -0.002265 0.056032 0.002855
				CHANNELS 3 Zrotation Yrotation Xrotation
				JOINT lowerneck
				{
					OFFSET -0.013390 0.211636 -0.033468
					CHANNELS 3 Zrotation Yrotation Xrotation
					JOINT upperneck
					{
						OFFSET 0.010113 0.088937 0.050410
						CHANNELS 3 Zrotation Yrotation Xrotation
						End Site
						{
							OFFSET 0.000000 0.000000 0.000000
						}
					}
				}
				JOINT lclavicle
				{
					OFFSET 0.071702 0.114000 -0.018898
					CHANNELS 3 Zrotation Yrotation Xrotation
					JOINT lshoulder
					{
						OFFSET 0.122921 0.045205 -0.019046
						CHANNELS 3 Zrotation Yrotation Xrotation
						JOINT lelbow
						{
							OFFSET 0.255332 -0.015649 -0.022946
							CHANNELS 3 Zrotation Yrotation Xrotation
							JOINT lwrist
							{
								OFFSET 0.265709 0.012698 -0.007375
								CHANNELS 3 Zrotation Yrotation Xrotation
								End Site
								{
									OFFSET 0.000000 0.000000 0.000000
								}
							}
						}
					}
				}
				JOINT rclavicle
				{
					OFFSET -0.082954 0.112472 -0.023707
					CHANNELS 3 Zrotation Yrotation Xrotation
					JOINT rshoulder
					{
						OFFSET -0.113228 0.046853 -0.008472
						CHANNELS 3 Zrotation Yrotation Xrotation
						JOINT relbow
						{
							OFFSET -0.260127 -0.014369 -0.031269
							CHANNELS 3 Zrotation Yrotation Xrotation
							JOINT rwrist
							{
								OFFSET -0.269108 0.006794 -0.006027
								CHANNELS 3 Zrotation Yrotation Xrotation
								End Site
								{
									OFFSET 0.000000 0.000000 0.000000
								}
							}
						}
					}
				}
			}
		}
	}
}
MOTION
Frames: 10
Frame Time: 0.033333
-0.379506 2.337702 0.921155 -3.392188 -2.826731 88.376233 -3.761706 1.191672 -31.475215 0.450862 27.661481 37.638767 13.450780 22.765672 -18.308999 0.000000 -0.000000 0.000000 -0.868754 2.431493 -7.524661 5.885549 3.144643 60.870799 8.674387 -1.079432 -24.727126 0.000000 -0.000000 0.000000 -2.311395 6.628429 29.460983 -0.355779 -6.504357 8.642623 1.095870 0.559866 2.421933 3.612293 -4.933765 9.901917 9.818012 -3.231996 -22.309175 -19.355235 -2.958303 -7.428383 -37.200152 -16.643977 -0.380656 66.632453 -69.854542 -58.632767 13.804915 -16.425246 14.457639 18.517206 10.248373 -1.475478 46.123484 18.583912 2.314459 -68.834235 75.223826 -55.006043 -13.893035 21.268048 8.724028 
-0.378407 2.327441 0.921645 -3.475615 -2.724123 88.807545 -3.671890 1.012425 -31.481506 0.685709 27.764025 38.326012 13.491447 23.059659 -19.223504 0.000000 -0.000000 0.000000 -0.992490 2.489889 -7.400531 6.046738 3.314701 60.843347 9.177943 -0.718516 -23.584013 0.000000 -0.000000 0.000000 -2.476956 6.761051 29.355306 -0.345282 -6.595236 8.580113 1.100102 0.516476 2.401673 3.464596 -4.408478 9.793684 9.764973 -2.886825 -22.522929 -19.052682 -3.336090 -7.566503 -36.846123 -16.869120 -0.389502 66.790357 -69.846320 -58.721535 13.993423 -16.520841 14.410781 18.446160 10.401048 -1.564324 46.089922 18.436813 2.362078 -69.764686 75.474008 -55.859664 -13.880975 21.270125 8.641233 
-0.377461 2.317276 0.922028 -3.462333 -2.676554 89.236782 -3.622779 0.980570 -31.438531 0.764041 27.882765 38.920983 13.483814 23.200471 -20.086706 0.000000 -0.000000 0.000000 -1.123602 2.569831 -7.367158 6.141355 3.366007 60.936288 9.653440 -0.461874 -22.339455 0.000000 -0.000000 0.000000 -2.718478 6.873305 29.192879 -0.323374 -6.621644 8.535414 1.116025 0.494995 2.375773 3.338544 -3.970364 9.733580 9.771150 -2.660585 -22.791845 -18.777866 -3.713491 -7.699650 -36.543077 -17.206071 -0.343446 66.871249 -69.788436 -58.785169 14.145376 -16.579652 14.297870 18.395798 10.524658 -1.654737 46.055261 18.197016 2.409127 -70.434418 75.615286 -56.421267 -13.973065 21.261118 8.502253 
-0.376537 2.307337 0.922262 -3.321708 -2.647527 89.659286 -3.629388 0.908837 -31.424456 0.833219 27.939257 39.500547 13.537954 23.295806 -20.771359 0.000000 -0.000000 0.000000 -1.266007 2.553312 -7.516081 6.100524 3.193405 61.250028 10.100536 -0.263024 -20.832456 0.000000 -0.000000 0.000000 -2.936964 6.930249 28.992379 -0.284636 -6.655125 8.487872 1.128379 0.473968 2.391851 3.179092 -3.523675 9.696944 9.683479 -2.395503 -23.083624 -18.480241 -4.117841 -7.851175 -36.336012 -17.541774 -0.289729 66.942345 -69.709997 -58.838539 14.277429 -16.622227 14.183060 18.274381 10.651025 -1.785542 46.075418 17.944317 2.431082 -70.815454 75.654580 -56.776203 -14.038764 21.186076 8.291382 
-0.375629 2.297932 0.922464 -3.119205 -2.621281 90.021626 -3.667845 0.592764 -31.384898 1.071833 27.963358 40.069180 13.616316 23.409364 -21.373336 0.000000 -0.000000 0.000000 -1.394726 2.609995 -7.934439 6.021677 2.945338 61.952267 10.711517 -0.023251 -18.811851 0.000000 -0.000000 0.000000 -3.113271 6.941561 28.945290 -0.228899 -6.678512 8.399055 1.126152 0.457925 2.362515 2.972773 -3.063387 9.616278 9.574642 -2.160403 -23.242888 -18.179433 -4.540414 -8.043004 -36.198517 -17.871694 -0.176713 67.122358 -69.565919 -58.973533 14.375492 -16.646993 14.105123 18.182756 10.788879 -1.892950 45.977740 17.712330 2.432744 -71.325662 75.622573 -57.250772 -14.038347 21.107013 8.249399 
-0.374900 2.288822 0.922660 -2.997665 -2.546758 90.195024 -3.666326 0.146142 -31.196015 1.400595 27.874183 40.644364 13.764636 23.728879 -21.950322 0.000000 -0.000000 0.000000 -1.500392 2.846018 -8.539072 6.015661 2.711737 63.119201 11.512643 0.363507 -16.073133 0.000000 -0.000000 0.000000 -3.252865 6.962939 29.115451 -0.147791 -6.585554 8.325475 1.086338 0.488291 2.250463 2.748192 -2.685806 9.716015 9.573946 -1.975799 -23.526338 -17.856809 -4.995186 -8.167603 -36.064360 -18.279142 -0.050265 67.148829 -69.419207 -58.954969 14.535776 -16.678613 13.905954 18.069153 10.920331 -1.855827 45.811094 17.519845 2.291251 -71.933911 75.611555 -57.796713 -14.085655 21.049784 8.168244 
-0.374437 2.280212 0.922671 -2.858492 -2.407903 90.212990 -3.602797 -0.403427 -30.902399 1.782051 27.676287 41.248303 13.990509 24.153301 -22.594093 0.000000 -0.000000 0.000000 -1.655561 3.120457 -9.522054 6.087003 2.273013 64.902487 12.446469 0.765678 -12.407500 0.000000 -0.000000 0.000000 -3.348065 6.944411 29.373273 -0.018918 -6.430740 8.313295 1.032265 0.515028 2.183642 2.506100 -2.130303 9.874185 9.429828 -1.771604 -23.838551 -17.449832 -5.540658 -8.355139 -35.934887 -18.657258 0.069419 66.955342 -69.295566 -58.665459 14.601800 -16.698715 13.769543 17.903060 11.150881 -1.862376 45.597147 17.332728 2.102410 -72.517671 75.596623 -58.409785 -14.041247 20.944841 8.040722 
-0.374154 2.272217 0.922566 -2.451862 -2.252304 90.104379 -3.527567 -0.992965 -30.513227 2.124155 27.482336 41.839525 14.256362 24.421134 -23.258118 0.000000 -0.000000 0.000000 -1.950829 3.226429 -11.051706 6.134560 1.455057 67.377965 13.466567 1.135738 -7.594636 0.000000 -0.000000 0.000000 -3.433294 6.796192 29.814773 0.228176 -6.318592 8.263830 0.986383 0.475996 2.110216 2.324476 -1.529323 9.988898 9.142095 -1.765864 -24.057554 -16.966835 -6.077584 -8.536053 -35.824564 -19.062890 0.147152 66.775537 -69.185654 -58.356163 14.443484 -16.738526 13.706019 17.819640 11.388309 -1.877527 45.250146 17.208297 1.865469 -73.168719 75.602420 -58.987368 -13.796728 20.909715 8.291020 
-0.374051 2.264949 0.922520 -1.722455 -2.062829 89.929438 -3.417965 -1.373986 -30.007433 2.180025 27.256239 42.233780 14.497574 24.447305 -23.945505 0.000000 -0.000000 0.000000 -2.378303 3.155869 -13.151721 6.087306 0.297671 70.302618 14.295861 1.428678 -1.643804 0.000000 -0.000000 0.000000 -3.501767 6.465714 30.451621 0.566293 -6.204845 8.046950 0.946128 0.350584 2.110479 2.296255 -0.908928 10.076500 8.798174 -1.813391 -24.347089 -16.548230 -6.636089 -8.667244 -35.579164 -19.533814 0.142089 66.755453 -69.130446 -58.255293 14.529272 -16.746569 13.526042 17.828148 11.577573 -1.882543 44.866947 17.093742 1.522551 -73.862253 75.734796 -59.640607 -13.624181 20.787051 8.633361 
-0.374183 2.258084 0.922599 -0.697781 -1.834322 89.683948 -3.232256 -1.459474 -29.333402 1.790426 26.894643 42.387410 14.673038 24.257987 -24.712415 0.000000 -0.000000 0.000000 -2.946940 2.880356 -15.617403 5.933808 -1.176621 73.381541 14.681530 1.343259 5.099410 0.000000 -0.000000 0.000000 -3.547298 5.969557 31.280666 0.959817 -6.049975 7.657739 0.879113 0.171192 2.135117 2.459728 -0.182007 10.143741 8.437729 -2.026935 -24.596045 -16.179119 -7.207574 -8.751224 -35.215328 -20.139612 0.118111 66.500990 -69.087844 -57.949680 14.740226 -16.755902 13.342968 17.990275 11.669335 -1.881989 44.508305 16.884290 1.095780 -74.803795 76.065922 -60.610191 -13.474954 20.580309 8.941922 
